<svg width="12" height="13" viewBox="0 0 12 13" fill="none" xmlns="http://www.w3.org/2000/svg">
<path fill-rule="evenodd" clip-rule="evenodd" d="M6 0C6.66274 0 7.2 0.505234 7.2 1.12847V9.14627L9.95147 6.55969C10.3841 6.15289 11.0647 6.1216 11.5355 6.46581L11.6485 6.55969C12.0811 6.96648 12.1144 7.60659 11.7484 8.04928L11.6485 8.15559L6.84853 12.6695L6.79578 12.7162L6.71437 12.7784L6.58087 12.8593L6.4456 12.9196L6.31919 12.9595L6.14097 12.9923L6 13L5.90971 12.9969L5.75913 12.9772L5.62543 12.9439L5.49213 12.8943L5.37515 12.8352L5.2599 12.7599C5.22184 12.7318 5.18563 12.7016 5.15147 12.6695L0.351472 8.15559C-0.117157 7.71489 -0.117157 7.00038 0.351472 6.55969C0.784053 6.15289 1.46473 6.1216 1.93548 6.46581L2.04853 6.55969L4.8 9.14627V1.12847C4.8 0.505234 5.33726 0 6 0Z" fill="white"/>
</svg>
