<svg width="26" height="20" viewBox="0 0 26 20" fill="none" xmlns="http://www.w3.org/2000/svg">
<path fill-rule="evenodd" clip-rule="evenodd" d="M14.6164 0.946011L23.0911 5.26942C23.4827 5.46921 23.4888 6.03723 23.1016 6.24573L12.0949 12.1728C11.4812 12.5033 10.749 12.5115 10.1283 12.1949L3.21772 8.66933C2.37582 8.32424 1.43448 8.95451 1.43448 9.90386C1.43448 10.6671 1.85713 11.3649 2.52623 11.7063L9.45467 15.2408C9.87761 14.8015 10.4665 14.5289 11.1178 14.5289C11.7505 14.5289 12.3243 14.7861 12.7443 15.2035L21.3739 10.5565C21.3503 10.4206 21.338 10.2808 21.338 10.138C21.338 8.82444 22.3816 7.75962 23.669 7.75962C24.9564 7.75962 26 8.82444 26 10.138C26 11.4515 24.9564 12.5163 23.669 12.5163C23.0395 12.5163 22.4683 12.2618 22.0488 11.848L13.4144 16.4977C13.437 16.6307 13.4488 16.7676 13.4488 16.9073C13.4488 18.2208 12.4052 19.2857 11.1178 19.2857C9.83044 19.2857 8.78679 18.2208 8.78679 16.9073C8.78679 16.7858 8.79571 16.6664 8.81296 16.5498L1.78416 12.9641C0.690708 12.4063 0 11.266 0 10.0186V9.32383C0 8.37386 0.515303 7.50191 1.33873 7.05855L12.6498 0.968058C13.2635 0.637581 13.9957 0.629372 14.6164 0.946011ZM11.1178 17.822C11.613 17.822 12.0144 17.4125 12.0144 16.9073C12.0144 16.4021 11.613 15.9925 11.1178 15.9925C10.6227 15.9925 10.2213 16.4021 10.2213 16.9073C10.2213 17.4125 10.6227 17.822 11.1178 17.822ZM24.5655 10.138C24.5655 10.6432 24.1641 11.0528 23.669 11.0528C23.1738 11.0528 22.7724 10.6432 22.7724 10.138C22.7724 9.63276 23.1738 9.22321 23.669 9.22321C24.1641 9.22321 24.5655 9.63276 24.5655 10.138Z" fill="white" fill-opacity="0.4"/>
</svg>
