<svg width="24" height="25" viewBox="0 0 24 25" fill="none" xmlns="http://www.w3.org/2000/svg">
<rect opacity="0.01" y="0.5" width="24" height="24" fill="black"/>
<path fill-rule="evenodd" clip-rule="evenodd" d="M17.1629 3.59382C15.587 2.67418 13.866 2.21436 11.9999 2.21436C10.1339 2.21436 8.41289 2.67418 6.837 3.59382C5.26111 4.51346 4.01334 5.76123 3.0937 7.33712C2.17405 8.91302 1.71423 10.634 1.71423 12.5001C1.71423 14.7411 2.36825 16.7568 3.67629 18.5469C4.98432 20.3371 6.67406 21.576 8.74548 22.2635C8.98655 22.3081 9.16513 22.2769 9.2812 22.1697C9.39727 22.0626 9.4553 21.9286 9.4553 21.7679C9.4553 21.7322 9.45307 21.4889 9.44861 21.038C9.44414 20.5871 9.44191 20.192 9.44191 19.8527L9.13388 19.9063C8.93745 19.942 8.68968 19.9577 8.39057 19.9532C8.09147 19.9487 7.7812 19.9175 7.45977 19.8594C7.13834 19.8014 6.83923 19.6675 6.56245 19.4577C6.28566 19.2478 6.08923 18.9733 5.97316 18.634L5.83923 18.326C5.74995 18.1206 5.60932 17.8929 5.41736 17.6429C5.22539 17.3929 5.0312 17.2233 4.83477 17.134L4.74102 17.067C4.67852 17.0224 4.62048 16.9688 4.56691 16.9063C4.51334 16.8438 4.47316 16.7813 4.44638 16.7188C4.41959 16.6563 4.44191 16.605 4.51334 16.5648C4.58477 16.5246 4.71423 16.5045 4.90173 16.5045L5.16959 16.5447C5.34816 16.5804 5.56914 16.6876 5.83254 16.8661C6.09593 17.0447 6.31245 17.2769 6.48209 17.5626C6.68745 17.9286 6.93522 18.2077 7.22539 18.3996C7.51557 18.5916 7.80798 18.6876 8.10263 18.6876C8.39727 18.6876 8.65173 18.6652 8.86602 18.6206C9.08031 18.576 9.2812 18.509 9.4687 18.4197C9.55798 17.8215 9.77673 17.3617 10.1249 17.0402C9.61602 16.9867 9.15843 16.9063 8.75218 16.7992C8.34593 16.692 7.92629 16.5179 7.49325 16.2769C7.06022 16.0358 6.70084 15.7367 6.41513 15.3795C6.12941 15.0224 5.89504 14.5536 5.712 13.9733C5.52897 13.3929 5.43745 12.7233 5.43745 11.9644C5.43745 10.9019 5.79013 9.98221 6.49548 9.20543C6.16513 8.39293 6.20084 7.48221 6.60263 6.47328C6.85263 6.39293 7.23209 6.45319 7.74102 6.65409C8.24995 6.85498 8.62272 7.02686 8.85932 7.16971C9.09593 7.31257 9.28566 7.43311 9.42852 7.53132C10.2589 7.29918 11.116 7.18311 11.9999 7.18311C12.8839 7.18311 13.741 7.29918 14.5714 7.53132L15.0803 7.20989C15.4285 6.99561 15.8392 6.79918 16.3124 6.62061C16.7857 6.44203 17.1473 6.39293 17.3973 6.47328C17.7991 7.48221 17.8348 8.39293 17.5044 9.20543C18.2098 9.98221 18.5624 10.9019 18.5624 11.9644C18.5624 12.7233 18.4709 13.3952 18.2879 13.98C18.1049 14.5648 17.8683 15.0336 17.5781 15.3862C17.2879 15.7389 16.9263 16.0358 16.4933 16.2769C16.0602 16.5179 15.6406 16.692 15.2343 16.7992C14.8281 16.9063 14.3705 16.9867 13.8616 17.0402C14.3258 17.442 14.558 18.076 14.558 18.942C14.558 19.4867 14.5558 20.0871 14.5513 20.7434C14.5468 21.3996 14.5446 21.7411 14.5446 21.7679C14.5446 21.9286 14.6026 22.0626 14.7187 22.1697C14.8348 22.2769 15.0133 22.3081 15.2544 22.2635C17.3258 21.576 19.0156 20.3371 20.3236 18.5469C21.6316 16.7568 22.2857 14.7411 22.2857 12.5001C22.2857 10.634 21.8258 8.91302 20.9062 7.33712C19.9866 5.76123 18.7388 4.51346 17.1629 3.59382ZM5.5178 16.826C5.60709 16.8706 5.63834 16.9242 5.61155 16.9867C5.57584 17.0581 5.5178 17.067 5.43745 17.0135C5.34816 16.9688 5.31691 16.9152 5.3437 16.8527C5.37048 16.8081 5.42852 16.7992 5.5178 16.826ZM6.02673 17.442C6.08923 17.3974 6.08031 17.326 5.99995 17.2277C5.91066 17.1474 5.83923 17.134 5.78566 17.1876C5.72316 17.2322 5.73209 17.3036 5.81245 17.4019C5.90173 17.4911 5.97316 17.5045 6.02673 17.442ZM6.42852 17.7902C6.50888 17.8974 6.50888 17.9822 6.42852 18.0447C6.35709 18.0983 6.2812 18.067 6.20084 17.951C6.12048 17.8349 6.12048 17.7545 6.20084 17.7099C6.2812 17.6474 6.35709 17.6742 6.42852 17.7902ZM6.99102 18.6072C7.06245 18.5358 7.04459 18.451 6.93745 18.3527C6.8303 18.2456 6.74102 18.2322 6.66959 18.3126C6.58923 18.384 6.60709 18.4688 6.72316 18.567C6.8303 18.6742 6.91959 18.6876 6.99102 18.6072ZM7.58031 18.7277C7.72316 18.7724 7.7812 18.8438 7.75441 18.942C7.7187 19.0492 7.63388 19.076 7.49995 19.0224C7.34816 18.9867 7.29013 18.9197 7.32584 18.8215C7.36156 18.7233 7.44638 18.692 7.58031 18.7277ZM8.59816 19.009C8.59816 18.8929 8.52227 18.8438 8.37048 18.8617C8.22763 18.8617 8.1562 18.9108 8.1562 19.009C8.1562 19.1251 8.23209 19.1742 8.38388 19.1563C8.52673 19.1563 8.59816 19.1072 8.59816 19.009ZM9.13388 18.7545C9.27673 18.7367 9.35709 18.7769 9.37495 18.8751C9.3928 18.9644 9.3303 19.0269 9.18745 19.0626C9.04459 19.0983 8.96423 19.0626 8.94638 18.9554C8.92852 18.8483 8.99102 18.7813 9.13388 18.7545Z"  />
</svg>
