<svg width="395" height="147" viewBox="0 0 395 147" fill="none" xmlns="http://www.w3.org/2000/svg">
<path d="M166.949 71V80.43H142.677V95.3678H161.277V104.631H142.677V129.249H131V71H166.949Z" fill="white"/>
<path d="M218.852 83.017V129.249H207.092V123.407C205.59 125.41 203.616 126.996 201.17 128.164C198.779 129.277 196.165 129.833 193.329 129.833C189.715 129.833 186.518 129.082 183.737 127.58C180.957 126.022 178.761 123.769 177.148 120.82C175.591 117.816 174.813 114.256 174.813 110.139V83.017H186.49V108.47C186.49 112.141 187.407 114.979 189.242 116.982C191.077 118.929 193.58 119.902 196.749 119.902C199.974 119.902 202.504 118.929 204.339 116.982C206.174 114.979 207.092 112.141 207.092 108.47V83.017H218.852Z" fill="white"/>
<path d="M243.97 92.6139V114.979C243.97 116.537 244.331 117.677 245.054 118.4C245.832 119.068 247.111 119.402 248.891 119.402H254.312V129.249H246.972C237.13 129.249 232.209 124.464 232.209 114.895V92.6139H226.704V83.017H232.209V71.5842H243.97V83.017H254.312V92.6139H243.97Z" fill="white"/>
<path d="M306.334 83.017V129.249H294.574V123.407C293.072 125.41 291.098 126.996 288.651 128.164C286.26 129.277 283.647 129.833 280.811 129.833C277.197 129.833 273.999 129.082 271.219 127.58C268.439 126.022 266.242 123.769 264.63 120.82C263.073 117.816 262.294 114.256 262.294 110.139V83.017H273.971V108.47C273.971 112.141 274.889 114.979 276.724 116.982C278.559 118.929 281.061 119.902 284.231 119.902C287.456 119.902 289.986 118.929 291.821 116.982C293.656 114.979 294.574 112.141 294.574 108.47V83.017H306.334Z" fill="white"/>
<path d="M329.533 90.1938C331.034 87.7459 332.981 85.8265 335.372 84.4356C337.818 83.0448 340.599 82.3494 343.712 82.3494V94.6167H340.626C336.956 94.6167 334.176 95.479 332.285 97.2037C330.45 98.9283 329.533 101.933 329.533 106.216V129.249H317.856V83.017H329.533V90.1938Z" fill="white"/>
<path d="M394.533 105.132C394.533 106.801 394.422 108.303 394.2 109.638H360.419C360.697 112.976 361.865 115.591 363.922 117.482C365.98 119.374 368.51 120.32 371.512 120.32C375.85 120.32 378.936 118.456 380.771 114.728H393.366C392.031 119.179 389.473 122.851 385.692 125.744C381.911 128.581 377.268 130 371.763 130C367.314 130 363.311 129.026 359.752 127.079C356.249 125.076 353.496 122.267 351.494 118.651C349.548 115.034 348.575 110.862 348.575 106.133C348.575 101.348 349.548 97.148 351.494 93.5318C353.44 89.9156 356.165 87.1339 359.668 85.1867C363.172 83.2395 367.203 82.2659 371.763 82.2659C376.156 82.2659 380.076 83.2117 383.523 85.1032C387.026 86.9948 389.723 89.6931 391.614 93.198C393.56 96.6473 394.533 100.625 394.533 105.132ZM382.439 101.793C382.383 98.7892 381.299 96.397 379.186 94.6167C377.073 92.7808 374.487 91.8628 371.429 91.8628C368.537 91.8628 366.091 92.7529 364.089 94.5332C362.143 96.2579 360.947 98.678 360.502 101.793H382.439Z" fill="white"/>
<path d="M90.0226 0.283447C90.0226 0.283447 73.7946 18.5233 52.1936 24.4593C33.3605 29.5859 7.03756 38.8677 1.55589 70.3826C-3.92579 101.898 11.868 117.655 11.868 117.655C11.868 117.655 -1.10354 71.5698 51.2709 60.3453C103.645 49.1208 91.8136 2.33408 90.0226 0.283447Z" fill="url(#paint0_linear_28_201)"/>
<path d="M99.0321 37.8306C99.0321 37.8306 94.3103 67.1331 50.4026 78.6274C19.0865 86.8839 0.687588 131.62 44.2696 147C44.8667 146.784 30.484 134.426 43.4555 120.611C52.1394 111.33 58.9236 116.78 79.1136 101.616C85.6807 96.6513 90.4568 91.201 93.9304 85.5348C104.188 68.752 101.257 45.3856 99.0321 37.8306Z" fill="url(#paint1_linear_28_201)"/>
<defs>
<linearGradient id="paint0_linear_28_201" x1="89.7905" y1="1.67949" x2="-40.6606" y2="181.533" gradientUnits="userSpaceOnUse">
<stop stop-color="#72FF3B"/>
<stop offset="0.642662" stop-color="#00D3BA"/>
<stop offset="1" stop-color="#008686"/>
</linearGradient>
<linearGradient id="paint1_linear_28_201" x1="98.8422" y1="39.1291" x2="-23.734" y2="202.389" gradientUnits="userSpaceOnUse">
<stop stop-color="#72FF3B"/>
<stop offset="0.642662" stop-color="#00D3BA"/>
<stop offset="1" stop-color="#008686"/>
</linearGradient>
</defs>
</svg>
