<svg width="521" height="147" viewBox="0 0 521 147" fill="none" xmlns="http://www.w3.org/2000/svg">
<path d="M159.085 66.0193V75.4194H134.158V91.2821H154.133V100.346H134.158V125.274H122.324V66.0193H159.085Z" fill="white"/>
<path d="M212.398 78.7766V125.274H200.564V115.873C199.333 119.007 197.29 121.469 194.437 123.259C191.639 124.994 188.394 125.861 184.701 125.861C179.329 125.861 175.049 124.099 171.86 120.573C168.67 117.048 167.076 112.125 167.076 105.802V78.7766H178.826V104.459C178.826 108.152 179.777 111.033 181.679 113.104C183.582 115.118 186.156 116.125 189.401 116.125C192.814 116.125 195.528 115.034 197.542 112.852C199.556 110.67 200.564 107.536 200.564 103.452V78.7766H212.398Z" fill="white"/>
<path d="M248.84 115.118V125.274H242.629C237.426 125.274 233.425 124.015 230.627 121.497C227.886 118.979 226.515 114.782 226.515 108.907V88.7642H220.052V78.7766H226.515V67.2783H238.349V78.7766H248.756V88.7642H238.349V109.075C238.349 111.313 238.796 112.88 239.692 113.775C240.587 114.67 242.098 115.118 244.224 115.118H248.84Z" fill="white"/>
<path d="M302.678 78.7766V125.274H290.843V115.873C289.612 119.007 287.57 121.469 284.717 123.259C281.919 124.994 278.674 125.861 274.981 125.861C269.609 125.861 265.329 124.099 262.14 120.573C258.95 117.048 257.356 112.125 257.356 105.802V78.7766H269.106V104.459C269.106 108.152 270.057 111.033 271.959 113.104C273.862 115.118 276.436 116.125 279.681 116.125C283.094 116.125 285.808 115.034 287.822 112.852C289.836 110.67 290.843 107.536 290.843 103.452V78.7766H302.678Z" fill="white"/>
<path d="M326.111 87.6731C327.845 84.7076 330.139 82.3856 332.993 80.707C335.847 78.9724 339.036 78.1052 342.561 78.1052V90.7785H339.12C330.447 90.7785 326.111 94.8071 326.111 102.864V125.274H314.277V78.7766H326.111V87.6731Z" fill="white"/>
<path d="M348.607 65.4318C348.607 63.5294 349.279 61.9907 350.622 60.8157C351.964 59.5847 353.727 58.9692 355.909 58.9692C358.091 58.9692 359.854 59.5847 361.197 60.8157C362.54 61.9907 363.211 63.5294 363.211 65.4318C363.211 67.2783 362.54 68.817 361.197 70.0479C359.854 71.2229 358.091 71.8104 355.909 71.8104C353.727 71.8104 351.964 71.2229 350.622 70.0479C349.279 68.817 348.607 67.2783 348.607 65.4318ZM361.784 78.7766V125.274H349.95V78.7766H361.784Z" fill="white"/>
<path d="M389.36 78.1891C395.011 78.1891 399.543 79.6159 402.956 82.4695C406.369 85.3231 408.496 89.1279 409.335 93.8839H398.256C397.809 91.6458 396.801 89.8553 395.235 88.5124C393.668 87.1695 391.626 86.4981 389.108 86.4981C387.094 86.4981 385.527 86.9737 384.408 87.9249C383.289 88.8761 382.729 90.163 382.729 91.7857C382.729 93.0726 383.177 94.1077 384.072 94.8911C384.967 95.6744 386.086 96.2899 387.429 96.7375C388.772 97.1851 390.702 97.7167 393.22 98.3322C396.745 99.1155 399.599 99.9548 401.781 100.85C404.019 101.689 405.922 103.06 407.488 104.963C409.111 106.809 409.922 109.327 409.922 112.516C409.922 116.489 408.356 119.706 405.222 122.168C402.145 124.63 397.976 125.861 392.717 125.861C386.674 125.861 381.834 124.518 378.197 121.832C374.56 119.091 372.35 115.202 371.567 110.166H382.897C383.177 112.46 384.184 114.279 385.918 115.622C387.653 116.909 389.919 117.552 392.717 117.552C394.731 117.552 396.27 117.076 397.333 116.125C398.396 115.118 398.928 113.831 398.928 112.264C398.928 110.922 398.452 109.831 397.501 108.991C396.606 108.152 395.458 107.508 394.06 107.061C392.717 106.613 390.786 106.082 388.269 105.466C384.799 104.683 381.974 103.899 379.792 103.116C377.665 102.277 375.819 100.962 374.252 99.1715C372.742 97.381 371.986 94.919 371.986 91.7857C371.986 87.757 373.525 84.4838 376.602 81.9659C379.68 79.448 383.932 78.1891 389.36 78.1891Z" fill="white"/>
<path d="M444.419 115.118V125.274H438.208C433.004 125.274 429.004 124.015 426.206 121.497C423.464 118.979 422.093 114.782 422.093 108.907V88.7642H415.631V78.7766H422.093V67.2783H433.927V78.7766H444.335V88.7642H433.927V109.075C433.927 111.313 434.375 112.88 435.27 113.775C436.166 114.67 437.676 115.118 439.803 115.118H444.419Z" fill="white"/>
<path d="M452.431 65.4318C452.431 63.5294 453.102 61.9907 454.445 60.8157C455.788 59.5847 457.55 58.9692 459.733 58.9692C461.915 58.9692 463.677 59.5847 465.02 60.8157C466.363 61.9907 467.034 63.5294 467.034 65.4318C467.034 67.2783 466.363 68.817 465.02 70.0479C463.677 71.2229 461.915 71.8104 459.733 71.8104C457.55 71.8104 455.788 71.2229 454.445 70.0479C453.102 68.817 452.431 67.2783 452.431 65.4318ZM465.608 78.7766V125.274H453.774V78.7766H465.608Z" fill="white"/>
<path d="M498.051 78.1891C504.038 78.1891 509.018 79.8117 512.99 83.057C517.019 86.3023 519.537 90.7226 520.544 96.3179H508.039C507.535 93.8559 506.388 91.9255 504.597 90.5267C502.807 89.0719 500.541 88.3446 497.799 88.3446C494.666 88.3446 492.036 89.5196 489.91 91.8696C487.839 94.1637 486.804 97.5488 486.804 102.025C486.804 106.501 487.839 109.914 489.91 112.264C492.036 114.559 494.666 115.706 497.799 115.706C500.541 115.706 502.807 115.006 504.597 113.607C506.388 112.153 507.535 110.194 508.039 107.732H520.544C519.537 113.328 517.019 117.748 512.99 120.993C509.018 124.238 504.038 125.861 498.051 125.861C493.519 125.861 489.49 124.91 485.965 123.007C482.44 121.049 479.698 118.279 477.74 114.698C475.782 111.117 474.802 106.893 474.802 102.025C474.802 97.1572 475.782 92.9327 477.74 89.3517C479.698 85.7148 482.44 82.9451 485.965 81.0427C489.49 79.1403 493.519 78.1891 498.051 78.1891Z" fill="white"/>
<path d="M90.0226 0.283447C90.0226 0.283447 73.7946 18.5233 52.1936 24.4593C33.3605 29.5859 7.03756 38.8677 1.55589 70.3826C-3.92579 101.898 11.868 117.655 11.868 117.655C11.868 117.655 -1.10354 71.5698 51.2709 60.3453C103.645 49.1208 91.8136 2.33408 90.0226 0.283447Z" fill="url(#paint0_linear_28_201)"/>
<path d="M99.0321 37.8306C99.0321 37.8306 94.3103 67.1331 50.4026 78.6274C19.0865 86.8839 0.687588 131.62 44.2696 147C44.8667 146.784 30.484 134.426 43.4555 120.611C52.1394 111.33 58.9236 116.78 79.1136 101.616C85.6807 96.6513 90.4568 91.201 93.9304 85.5348C104.188 68.752 101.257 45.3856 99.0321 37.8306Z" fill="url(#paint1_linear_28_201)"/>
<defs>
<linearGradient id="paint0_linear_28_201" x1="89.7905" y1="1.67949" x2="-40.6606" y2="181.533" gradientUnits="userSpaceOnUse">
<stop stop-color="#72FF3B"/>
<stop offset="0.642662" stop-color="#00D3BA"/>
<stop offset="1" stop-color="#008686"/>
</linearGradient>
<linearGradient id="paint1_linear_28_201" x1="98.8422" y1="39.1291" x2="-23.734" y2="202.389" gradientUnits="userSpaceOnUse">
<stop stop-color="#72FF3B"/>
<stop offset="0.642662" stop-color="#00D3BA"/>
<stop offset="1" stop-color="#008686"/>
</linearGradient>
</defs>
</svg>
