<svg width="24" height="25" viewBox="0 0 24 25" fill="none" xmlns="http://www.w3.org/2000/svg">
<rect opacity="0.01" y="0.5" width="24" height="24" fill="white"/>
<path d="M20.6437 6.28039L22.2857 4.70271V4.35718H16.5991L12.5464 14.4929L7.93655 4.35718H1.97405V4.70271L3.89191 7.02236C4.07941 7.19378 4.17584 7.44557 4.15173 7.69736V16.8125C4.21066 17.142 4.1062 17.4768 3.87584 17.7152L1.71423 20.3482V20.6884H7.83745V20.3429L5.67852 17.7179C5.44405 17.4798 5.33409 17.146 5.3812 16.8152V8.9295L10.7571 20.6938H11.3812L16.0044 8.9295V18.3018C16.0044 18.5482 16.0044 18.5991 15.8437 18.7625L14.1803 20.3777V20.7232H22.2482V20.3777L20.6437 18.8C20.5044 18.6929 20.4321 18.5134 20.4616 18.3393V6.74111C20.4333 6.56577 20.5032 6.38901 20.6437 6.28039V6.28039Z" />
</svg>
