<svg width="33" height="34" viewBox="0 0 33 34" fill="none" xmlns="http://www.w3.org/2000/svg">
<path fill-rule="evenodd" clip-rule="evenodd" d="M15.858 8.5793H5.58719C3.63023 8.5793 2.04102 6.99228 2.04102 5.03532C2.04102 3.07835 3.63023 1.49133 5.58719 1.49133H15.858C17.8149 1.49133 19.4019 3.07835 19.4019 5.03532C19.4019 6.99228 17.8149 8.5793 15.858 8.5793Z" stroke="white" stroke-width="2" stroke-linecap="round" stroke-linejoin="round"/>
<path d="M13.0143 15.6677H11.7491C9.7921 15.6677 8.20508 14.0785 8.20508 12.1237C8.20508 10.1645 9.7921 8.57971 11.7491 8.57971H22.022C23.979 8.57971 25.566 10.1645 25.566 12.1237" stroke="white" stroke-width="2" stroke-linecap="round" stroke-linejoin="round"/>
<path d="M25.5658 12.1234C25.5658 12.5547 25.4891 12.9706 25.3469 13.3536" stroke="white" stroke-width="2" stroke-linecap="round" stroke-linejoin="round"/>
<path d="M11.3135 22.7542H4.66117C2.70421 22.7542 1.11719 21.1672 1.11719 19.2103C1.11719 17.2533 2.70421 15.6685 4.66117 15.6685H14.9341" stroke="white" stroke-width="2" stroke-linecap="round" stroke-linejoin="round"/>
<path d="M14.9336 29.8429H4.66287C2.70591 29.8429 1.1167 28.2559 1.1167 26.2989C1.1167 24.3398 2.70591 22.7549 4.66287 22.7549H11.7749" stroke="white" stroke-width="2" stroke-linecap="round" stroke-linejoin="round"/>
<path d="M21.6624 16.6425C24.8955 16.6425 27.5179 19.2649 27.5179 22.498" stroke="#71FF3A" stroke-width="2" stroke-linecap="round" stroke-linejoin="round"/>
<path d="M21.6622 28.3529C18.4291 28.3529 15.8088 25.7327 15.8088 22.4974" stroke="#71FF3A" stroke-width="2" stroke-linecap="round" stroke-linejoin="round"/>
<path fill-rule="evenodd" clip-rule="evenodd" d="M31.2157 22.4978C31.2157 27.7733 26.9384 32.0506 21.6629 32.0506C16.3874 32.0506 12.1079 27.7733 12.1079 22.4978C12.1079 17.2224 16.3874 12.9451 21.6629 12.9451C26.9384 12.9451 31.2157 17.2224 31.2157 22.4978Z" stroke="#71FF3A" stroke-width="2" stroke-linecap="round" stroke-linejoin="round"/>
</svg>
