<svg width="30" height="30" viewBox="0 0 30 30"  xmlns="http://www.w3.org/2000/svg">
    <path fill-rule="evenodd" clip-rule="evenodd" d="M12 12C12.3314 12 12.6 12.2798 12.6 12.625V19.8656L13.9757 18.4331C14.192 18.2078 14.5324 18.1904 14.7677 18.3811L14.8243 18.4331C15.0406 18.6584 15.0572 19.0129 14.8742 19.2581L14.8243 19.3169L12.4243 21.8169L12.3979 21.8428L12.3572 21.8773L12.2904 21.9221L12.2228 21.9555L12.1596 21.9776L12.0705 21.9957L12 22L11.9549 21.9983L11.8796 21.9874L11.8127 21.9689L11.7461 21.9415L11.6876 21.9088L11.63 21.867C11.6109 21.8515 11.5928 21.8347 11.5757 21.8169L9.17574 19.3169C8.94142 19.0729 8.94142 18.6771 9.17574 18.4331C9.39203 18.2078 9.73236 18.1904 9.96774 18.3811L10.0243 18.4331L11.4 19.8656V12.625C11.4 12.2798 11.6686 12 12 12Z" />
    <path fill-rule="evenodd" clip-rule="evenodd" d="M18 18C17.6686 18 17.4 17.7202 17.4 17.375V10.1344L16.0243 11.5669C15.808 11.7922 15.4676 11.8096 15.2323 11.6189L15.1757 11.5669C14.9594 11.3416 14.9428 10.9871 15.1258 10.7419L15.1757 10.6831L17.5757 8.18306L17.6021 8.15718L17.6428 8.12271L17.7096 8.07792L17.7772 8.04452L17.8404 8.0224L17.9295 8.00427L18 8L18.0451 8.00174L18.1204 8.01265L18.1873 8.03109L18.2539 8.05855L18.3124 8.09125L18.37 8.13299C18.3891 8.14854 18.4072 8.16527 18.4243 8.18306L20.8243 10.6831C21.0586 10.9271 21.0586 11.3229 20.8243 11.5669C20.608 11.7922 20.2676 11.8096 20.0323 11.6189L19.9757 11.5669L18.6 10.1344V17.375C18.6 17.7202 18.3314 18 18 18Z" />
</svg>
