<svg width="24" height="24" viewBox="0 0 24 24" fill="none" xmlns="http://www.w3.org/2000/svg">
<rect opacity="0.01" width="24" height="24" fill="black"/>
<path d="M23.3466 4.96338C22.7041 5.90413 21.9266 6.70567 21.014 7.36759C21.0238 7.50154 21.0287 7.70301 21.0287 7.972C21.0287 9.21986 20.8463 10.4646 20.4815 11.7064C20.1167 12.9482 19.5627 14.1402 18.8197 15.2825C18.0766 16.4247 17.1915 17.435 16.1647 18.3131C15.1379 19.1914 13.8998 19.8921 12.4504 20.4153C11.0011 20.9384 9.45159 21.2002 7.80196 21.2002C5.20174 21.2002 2.82189 20.5043 0.662598 19.1128C0.997871 19.1508 1.37191 19.1698 1.78469 19.1698C3.94399 19.1698 5.86811 18.5078 7.55697 17.1838C6.54977 17.1641 5.64759 16.8546 4.85046 16.2552C4.05335 15.6559 3.50613 14.8906 3.20885 13.9597C3.5257 14.0075 3.81864 14.0315 4.08764 14.0315C4.50042 14.0315 4.90814 13.9786 5.31107 13.873C4.23635 13.652 3.34636 13.1171 2.64136 12.2683C1.93636 11.4197 1.58386 10.4339 1.58386 9.31136V9.25417C2.2361 9.61895 2.93681 9.8155 3.68606 9.84379C3.05231 9.4213 2.54859 8.8698 2.17521 8.18931C1.8018 7.50892 1.61444 6.77012 1.61334 5.97299C1.61334 5.12795 1.82451 4.3462 2.24714 3.62767C3.40788 5.05731 4.82093 6.20139 6.48654 7.06C8.152 7.91852 9.93433 8.3957 11.8332 8.49152C11.7571 8.12671 11.719 7.77175 11.719 7.42663C11.719 6.14066 12.1722 5.04442 13.0787 4.13798C13.9852 3.23153 15.0814 2.77832 16.3674 2.77832C17.7112 2.77832 18.8436 3.26784 19.7648 4.24668C20.8114 4.04523 21.7952 3.67122 22.7163 3.12466C22.3614 4.22762 21.6803 5.08195 20.6731 5.68741C21.5661 5.59159 22.4584 5.35155 23.3501 4.96705L23.3466 4.96338Z" />
</svg>
